<svg width="32" height="32" viewBox="0 0 32 32" fill="none" xmlns="http://www.w3.org/2000/svg">
<g clip-path="url(#clip0_3_303)">
<path fill-rule="evenodd" clip-rule="evenodd" d="M15.4285 8.44197C14.8797 7.87408 13.9823 7.32402 12.8458 6.9035C9.34909 5.61044 3.60784 5.40992 0.167973 8.74861C0.0605471 8.85256 1.28381e-05 8.99572 1.28381e-05 9.14507C1.28381e-05 9.14507 -0.0632513 15.6812 8.6924 18.6485C8.25848 19.7907 8.20538 21.007 8.33191 22.1142C8.56785 24.1766 9.42104 25.8436 9.42104 25.8436C9.52821 26.0535 9.75671 26.1726 9.99017 26.1398C9.99017 26.1398 14.8697 25.4377 17.0388 21.8038C17.9047 22.6719 19.9265 24.2964 23.3814 24.9038C28.8034 25.857 31.7512 23.8224 31.7512 23.8224C31.8938 23.7259 31.9831 23.5686 31.9933 23.3969C31.9933 23.3969 32.2967 18.0628 28.812 14.8258C26.1459 12.3488 23.7488 11.8817 22.5527 11.824C23.6798 8.91363 22.5366 6.35348 22.5366 6.35348C22.4572 6.1746 22.2892 6.0508 22.0947 6.02822C22.0947 6.02822 17.9115 5.55957 15.429 8.44172L15.4285 8.44197ZM14.2806 15.7733C13.1519 15.717 11.4046 16.1432 10.0966 18.2828C9.38212 19.4516 9.29428 20.7973 9.43052 21.9887C9.57938 23.2894 9.9999 24.4161 10.2371 24.9718C11.4101 24.7272 14.845 23.7765 16.3043 20.8429C17.2175 19.0075 16.6357 17.4623 15.9232 16.5933C15.7488 16.3809 15.5709 16.2085 15.4091 16.0894C14.8234 16.9029 13.2911 19.2164 12.3717 22.3057C12.2846 22.5982 11.9765 22.765 11.684 22.6779C11.3915 22.5908 11.2247 22.2827 11.3118 21.9902C12.1732 19.0961 13.5462 16.8473 14.2808 15.7731L14.2806 15.7733ZM17.5547 20.7367C18.034 21.2855 19.9131 23.1713 23.5728 23.8146C27.6218 24.5264 30.1471 23.4375 30.8965 23.0408C30.9017 21.9596 30.7238 18.1113 28.059 15.6358C25.0754 12.864 22.5076 12.8968 22.0099 12.9332C21.5152 13.7257 20.7583 14.3876 19.9085 14.8798C21.803 15.3507 24.7531 16.5192 27.692 19.418C27.9091 19.6323 27.9116 19.9829 27.6972 20.2002C27.4829 20.4173 27.1323 20.4198 26.915 20.2054C22.8194 16.1652 18.7187 15.7213 17.9597 15.6732C17.5426 15.7771 17.133 15.8374 16.747 15.854C16.7576 15.8665 16.7681 15.8794 16.7782 15.8918C17.6131 16.9099 18.3304 18.6491 17.5545 20.7363L17.5547 20.7367ZM14.7725 9.35453C14.6123 9.13893 14.3637 8.92978 14.056 8.72436C13.311 8.22617 12.229 7.79129 10.9804 7.50122C7.90417 6.78619 3.80339 6.93878 1.1206 9.37162C1.22828 10.4705 2.10258 15.3027 9.18866 17.6486C10.7455 15.1451 12.8173 14.6191 14.2404 14.6685C14.195 14.5849 14.1526 14.4968 14.1129 14.404C14.0161 14.1767 13.9365 13.9192 13.8802 13.6374C13.356 13.1737 10.3061 10.7029 4.45422 10.3355C4.1498 10.3164 3.91808 10.0536 3.93718 9.74923C3.95629 9.44456 4.21902 9.21284 4.52344 9.23195C9.35043 9.53487 12.3965 11.1951 13.8097 12.1836C13.8866 11.3145 14.1741 10.3422 14.7723 9.35427L14.7725 9.35453ZM17.8387 14.5626C19.141 14.2019 20.5152 13.3722 21.164 12.191C22.3729 9.99016 21.8832 7.87213 21.6351 7.10452C20.6298 7.06432 17.5859 7.16282 15.9053 9.63608C15.8889 9.6666 15.8696 9.69587 15.8472 9.72291C14.9082 11.1564 14.7516 12.5602 14.9913 13.5454C15.058 13.8193 15.1483 14.0604 15.2614 14.2468C15.9288 13.0514 17.4829 10.4288 18.8864 9.25279C19.1203 9.0568 19.4692 9.0878 19.6654 9.32151C19.8614 9.55572 19.8304 9.90454 19.5967 10.1006C18.2982 11.1885 16.8744 13.6069 16.2429 14.7491C16.6416 14.7856 17.1003 14.7392 17.5757 14.6293C17.6541 14.5866 17.7436 14.5623 17.8386 14.5623L17.8387 14.5626Z" fill="black"/>
</g>
<defs>
<clipPath id="clip0_3_303">
<rect width="32" height="32" fill="white"/>
</clipPath>
</defs>
</svg>
