<svg width="32" height="32" viewBox="0 0 32 32" fill="none" xmlns="http://www.w3.org/2000/svg">
<g clip-path="url(#clip0_3_2)">
<path d="M1.99907 24.9086H2.05029C2.58152 24.8937 3.08481 24.6673 3.44794 24.2792L5.24085 22.3618C5.37268 22.5007 5.50426 22.6399 5.64344 22.7644L5.87035 22.9839L1.77216 26.8114C1.32424 27.2113 1.05988 27.7773 1.04024 28.3774C1.02235 28.9711 1.24582 29.5467 1.65944 29.9728C2.07331 30.399 2.64177 30.6391 3.23575 30.6388H3.29431C3.89048 30.6207 4.45235 30.3556 4.84584 29.9072L8.68063 25.8016L8.87813 25.9991C9.10871 26.2711 9.36893 26.5167 9.65389 26.7308L7.70002 28.5605C7.30943 28.9334 7.08793 29.4497 7.08646 29.9897C7.08499 30.5298 7.30405 31.047 7.69268 31.422C8.06831 31.7895 8.57213 31.9968 9.09767 32H9.14888C9.6637 31.9966 10.1562 31.7888 10.5174 31.422L13.5619 28.1726C14.0549 28.4757 14.6013 28.682 15.172 28.78C15.4455 28.8241 15.7219 28.8462 15.9988 28.8459C16.4942 28.8435 16.987 28.7722 17.4626 28.6337C18.1754 28.4529 18.8434 28.1265 19.4239 27.6749C20.0316 27.1866 20.5197 26.5656 20.851 25.8599C20.9536 25.6225 21.0394 25.3779 21.107 25.1283C22.5601 25.1714 23.9725 24.6463 25.0445 23.6644C25.7407 22.9896 26.2219 22.1239 26.4275 21.1763C26.4826 20.761 26.4826 20.3401 26.4275 19.9247V19.8076V19.8078C26.3902 19.6341 26.3902 19.4545 26.4275 19.2808C26.4307 19.2144 26.4483 19.1494 26.4789 19.0906C26.5757 18.9796 26.7073 18.9049 26.8521 18.8784C28.3547 18.4207 29.6151 17.3867 30.3576 16.0022C30.7555 15.27 30.8526 14.4117 30.6283 13.6092C30.4348 13.1775 30.1258 12.8077 29.7355 12.5406C29.6514 12.4674 29.5578 12.4059 29.4574 12.3576C29.4574 12.3576 29.4574 12.277 29.6036 12.1672L29.6039 12.1675C30.8033 11.19 31.4576 9.69382 31.3603 8.14963C31.2699 7.50741 30.9655 6.91444 30.4965 6.46649C30.2243 6.18838 29.9013 5.96491 29.5453 5.80784C29.5747 5.54271 29.5747 5.27514 29.5453 5.01C29.4495 4.30574 29.1165 3.65518 28.6012 3.1659C28.1094 2.64839 27.4566 2.31292 26.7497 2.21443C26.3931 2.15979 26.0302 2.15979 25.6737 2.21443C25.5392 1.70991 25.2653 1.25343 24.8835 0.897131C24.4358 0.415884 23.8365 0.102987 23.1857 0.0115913C21.6351 -0.0967159 20.1296 0.558999 19.1532 1.76799C19.0726 1.86306 19.0213 1.89247 19.0287 1.90692V1.90717C18.9439 1.82557 18.8657 1.73736 18.7947 1.64376C18.5283 1.25073 18.1586 0.939066 17.7261 0.743478C16.9246 0.516331 16.066 0.610669 15.3331 1.00689C13.9153 1.73561 12.8615 3.01715 12.4204 4.54911C12.3839 4.67727 12.3069 4.79023 12.2008 4.87108L12.0325 4.92965C11.611 5.00291 11.1803 5.00291 10.759 4.92965C9.41258 4.69539 7.83163 6.05657 7.66326 6.21778V6.21753C6.58439 7.25011 6.02128 8.7093 6.12641 10.1989C5.94337 10.2574 5.71647 10.3307 5.4751 10.4331V10.4329C4.76595 10.7619 4.14237 11.2505 3.65277 11.8599C3.19995 12.437 2.8733 13.1027 2.69421 13.8141C2.46878 14.5709 2.41635 15.3688 2.54058 16.1485C2.69127 17.0483 3.12155 17.8779 3.76994 18.5197L0.637644 21.4471C0.24118 21.8171 0.0115807 22.3319 0.0010737 22.8742C-0.0170586 23.4224 0.195144 23.9533 0.586457 24.3378C0.963074 24.7078 1.47106 24.9131 1.99911 24.9087L1.99907 24.9086ZM4.0848 29.2264C3.88583 29.4459 3.60503 29.5731 3.30904 29.5778C2.99221 29.5807 2.68788 29.4538 2.46734 29.2264C2.25245 29.0112 2.13361 28.7182 2.13802 28.4141C2.14561 28.113 2.27499 27.8277 2.4965 27.6236L19.2996 11.9182C19.3307 11.8898 19.365 11.8653 19.402 11.8452H19.5265C19.5652 11.8383 19.6049 11.8383 19.6436 11.8452C19.6819 11.8599 19.7167 11.8825 19.7461 11.9109C19.8105 11.9721 19.8473 12.0564 19.8485 12.1451C19.846 12.2309 19.8152 12.3132 19.7608 12.3794L18.158 14.0846L10.7447 22.0687C10.5948 22.1243 10.4786 22.2459 10.4301 22.398L4.0848 29.2264ZM9.74926 30.69H9.74901C9.58656 30.8664 9.35941 30.9695 9.11978 30.9754C8.87475 30.9816 8.6378 30.8872 8.46358 30.7147C8.28961 30.542 8.19355 30.3058 8.19772 30.0607C8.20433 29.8174 8.31019 29.5875 8.49029 29.4239L10.6858 27.3673L10.9127 27.4479L11.1031 27.5139C11.3234 27.5854 11.5483 27.6418 11.7762 27.6822C12.0185 27.7207 12.263 27.7427 12.5081 27.7481L9.74926 30.69ZM29.6041 13.9966C29.7242 14.522 29.6348 15.073 29.3552 15.5335C28.7695 16.6128 27.7884 17.4234 26.6181 17.7949C26.2094 17.8863 25.848 18.123 25.601 18.4609C25.4777 18.6503 25.4001 18.8657 25.3741 19.0904C25.3118 19.3871 25.3118 19.6936 25.3741 19.9904V20.0784C25.3939 20.3962 25.3792 20.7149 25.33 21.0296C25.179 21.7255 24.8311 22.3631 24.3276 22.8666C23.3496 23.7262 22.0593 24.142 20.7636 24.0155C20.4769 23.9891 20.2196 24.1917 20.178 24.4767C20.1238 24.7896 20.0304 25.0944 19.8998 25.3841C19.6406 25.9288 19.2601 26.4068 18.7877 26.782C18.3248 27.1444 17.7913 27.4061 17.2214 27.5504C16.6223 27.7222 15.9933 27.7621 15.3773 27.6673C15.0931 27.6161 14.8157 27.5325 14.5503 27.4186L14.9235 27.2941L15.3334 27.1184L15.414 27.0819C15.553 27.0086 15.7068 26.9282 15.8531 26.8403L15.9337 26.7891H15.9335C16.1014 26.6817 16.2626 26.5644 16.4165 26.4379C17.0815 25.9114 17.6151 25.2372 17.9751 24.4693C18.0937 24.2071 18.1891 23.9354 18.2606 23.6568C19.881 23.7134 21.4583 23.1297 22.6516 22.0322C23.3921 21.2937 23.9008 20.3553 24.1154 19.3317C24.1708 18.8821 24.1708 18.4275 24.1154 17.9779V17.8387C24.0738 17.641 24.0738 17.4366 24.1154 17.2386C24.1208 17.1573 24.1488 17.0786 24.1958 17.012C24.3022 16.877 24.4524 16.7836 24.6202 16.7483C24.73 16.7483 27.4011 15.9361 28.4477 13.6087C28.4477 13.5575 28.5062 13.4842 28.5427 13.4039V13.3161C28.5427 13.2502 28.5939 13.1917 28.616 13.1186V13.0601H28.6162C28.74 13.1855 28.8721 13.3029 29.0112 13.4112C29.257 13.5506 29.4616 13.7528 29.6042 13.9966L29.6041 13.9966ZM30.2701 8.28831H30.2699C30.3125 9.47476 29.7881 10.6105 28.8575 11.3476C28.8344 11.2251 28.8001 11.105 28.755 10.9889C28.5426 10.5216 28.2059 10.1217 27.7817 9.83252C27.6668 9.74896 27.559 9.65609 27.4598 9.5544C27.4598 9.5544 27.4598 9.47378 27.6428 9.3275L27.6426 9.32775C27.8153 9.16847 27.979 8.99989 28.1329 8.82273L28.2353 8.71296C28.3816 8.53727 28.5208 8.36893 28.6453 8.18614L28.7112 8.09106V8.09082C28.8209 7.92591 28.9209 7.75488 29.0111 7.57845L29.0623 7.49783V7.49808C29.1566 7.31381 29.2373 7.12293 29.3039 6.92715V6.86858C29.4502 6.95973 29.583 7.07074 29.6991 7.19791C30.0147 7.48166 30.2196 7.8681 30.2772 8.28832L30.2701 8.28831ZM26.5669 3.26808C27.0393 3.33889 27.4748 3.56555 27.8036 3.91205C28.1474 4.23623 28.3716 4.66674 28.4404 5.13425C28.4789 5.43908 28.4664 5.74831 28.4037 6.04896C28.1626 7.01611 27.6284 7.88522 26.8742 8.53728C26.6181 8.74483 26.4358 9.0298 26.3547 9.34956V9.48139V9.58381V9.73009C26.351 9.75435 26.351 9.7791 26.3547 9.80336C26.3505 9.83987 26.3505 9.87663 26.3547 9.91314V10.0009L26.3986 10.0815L26.4571 10.1765L26.501 10.2278C26.5664 10.315 26.6399 10.3959 26.7205 10.4694L26.823 10.5571L26.8668 10.5936L27.0058 10.7034H27.006C27.278 10.8881 27.4975 11.1403 27.6426 11.4353C27.7646 12.0067 27.6899 12.6024 27.4304 13.1258C26.5887 14.9846 24.3346 15.6506 24.342 15.6506C23.909 15.7393 23.5251 15.9875 23.2663 16.346C23.1279 16.5545 23.0402 16.7927 23.0103 17.0412C22.9451 17.3575 22.9451 17.6836 23.0103 18V18.1097C23.0348 18.4638 23.0201 18.8198 22.9664 19.1707C22.7988 19.9477 22.4099 20.6593 21.8466 21.2199C20.7515 22.1807 19.3083 22.6468 17.8582 22.5078C17.5712 22.4892 17.3174 22.6923 17.2725 22.9763C17.215 23.325 17.1115 23.6647 16.9653 23.9861C16.6889 24.5965 16.2787 25.1368 15.7651 25.5671C15.2566 25.9658 14.671 26.2549 14.0452 26.4159L13.8842 26.4597H13.7671C13.6061 26.4597 13.3939 26.5256 13.1596 26.5548V26.5551C12.7612 26.6036 12.3581 26.6036 11.9594 26.5551C11.5676 26.4916 11.1891 26.3629 10.8396 26.1745C10.414 25.9528 10.0359 25.6492 9.72744 25.2816L9.47873 25.0329L11.2496 23.1079L13.6793 23.0346L14.177 24.8351C14.2473 25.0679 14.4607 25.2279 14.7038 25.2304H14.8574C15.1488 25.1454 15.3181 24.8425 15.2379 24.5497L14.7988 23.0349H15.3112C15.6143 23.0349 15.8601 22.7891 15.8601 22.486C15.8601 22.1829 15.6143 21.9371 15.3112 21.9371L12.3399 22.0322L14.9525 19.2292L19.4312 19.7708H19.4973C19.7794 19.76 20.0072 19.5372 20.0241 19.2555C20.0411 18.9737 19.8418 18.725 19.5632 18.6804L18.9923 18.6071L19.8484 17.4655C20.0305 17.2232 19.9812 16.8791 19.7386 16.6971C19.4963 16.5153 19.1523 16.5645 18.9702 16.8068L17.7335 18.4535L15.882 18.2339L18.868 15.0358L21.1441 14.8674L21.7222 16.4334L21.7219 16.4337C21.8013 16.6483 22.0054 16.7912 22.2343 16.7924L22.4247 16.7559L22.4244 16.7557C22.5685 16.7069 22.6857 16.6001 22.7469 16.4609C22.8082 16.3215 22.8079 16.1629 22.7467 16.024L22.2784 14.7506L22.8273 14.714L22.827 14.7138C22.9728 14.7028 23.1081 14.6339 23.2029 14.5227C23.2977 14.4112 23.3441 14.2669 23.3321 14.1211C23.3049 13.8226 23.0459 13.5991 22.7467 13.616L19.9731 13.8209L20.6026 13.1476L20.6024 13.1478C20.8445 12.8812 20.98 12.5347 20.9829 12.1745C20.98 11.991 20.9427 11.8099 20.8731 11.6401L22.0147 10.4985L24.3273 10.6009C24.6304 10.6009 24.8762 10.3551 24.8762 10.052C24.8762 9.74894 24.6304 9.50317 24.3273 9.50317L23.01 9.4446L23.742 8.71269L23.7417 8.71293C23.9527 8.49436 23.9527 8.14813 23.7417 7.92983C23.5275 7.71591 23.1803 7.71591 22.9662 7.92983L20.0388 10.8572C19.8077 10.7602 19.5551 10.7271 19.3069 10.7619L19.0287 9.08614L20.5509 7.95188H20.5512C20.6889 7.87984 20.7901 7.7534 20.8305 7.60319C20.8709 7.45299 20.8464 7.29274 20.7634 7.16139C20.5845 6.94111 20.2672 6.89357 20.0314 7.05162L18.9558 7.84921L18.9119 7.5858H18.9117C18.8612 7.28686 18.5779 7.0852 18.2787 7.13568C17.9796 7.1864 17.7781 7.46966 17.8286 7.76886L18.4213 11.3108L15.2744 14.2383L14.6522 10.8426H14.6525C14.5978 10.5434 14.3111 10.3451 14.0122 10.3998C13.713 10.4544 13.5148 10.7411 13.5694 11.0401L13.6571 11.523L13.0644 11.179V11.1792C12.9387 11.0878 12.7804 11.054 12.6285 11.0861C12.4763 11.118 12.3452 11.213 12.2671 11.3473C12.1889 11.4814 12.1715 11.6426 12.2188 11.7903C12.2661 11.9383 12.3739 12.0594 12.5155 12.1233L13.9205 12.943L14.3231 15.1385L11.6079 17.678L11.1468 14.6629L11.147 14.6626C11.1352 14.5109 11.061 14.3708 10.9419 14.2757C10.8228 14.1809 10.6697 14.1397 10.519 14.162C10.3683 14.1843 10.2338 14.2683 10.1475 14.3938C10.0613 14.5193 10.0309 14.6751 10.064 14.8236L10.6349 18.5851L6.72684 22.2442L6.45608 21.9734L6.45583 21.9737C5.79398 21.4126 5.35294 20.6343 5.2118 19.7782C5.1797 19.5599 5.16009 19.3401 5.15323 19.1195V18.6292V18.5854C5.1797 18.293 5.2336 18.0039 5.31422 17.7218C5.45438 17.0776 5.73151 16.471 6.12649 15.9434C6.76802 15.1144 7.69816 14.5577 8.73193 14.3844C9.01862 14.3256 9.20877 14.0519 9.16368 13.7625C8.90957 12.3244 9.38666 10.8542 10.4371 9.83979C11.0397 9.27278 11.7821 8.87609 12.5888 8.69086C12.6836 8.67983 12.7792 8.67983 12.874 8.69086C13.4359 8.78936 14.0102 8.78936 14.5718 8.69086H14.6524C14.8891 8.65827 15.1146 8.57054 15.3111 8.4348C15.6718 8.18731 15.9315 7.81854 16.043 7.39564C16.451 6.06974 17.3557 4.95267 18.5678 4.27809C19.0929 3.98551 19.7053 3.88946 20.2948 4.00708C20.5759 4.15508 20.815 4.37169 20.9902 4.63656C21.2757 5.00975 21.671 5.50742 22.3222 5.36848H22.322C22.6545 5.29815 22.9519 5.11438 23.1637 4.84876C23.3286 4.66964 23.5045 4.50081 23.6905 4.34374C24.1803 3.91102 24.753 3.58215 25.3739 3.37785C25.7583 3.25288 26.1658 3.21539 26.5667 3.26807L26.5669 3.26808ZM19.9804 2.48497C20.7113 1.55239 21.8485 1.03168 23.032 1.08732C23.4498 1.14196 23.834 1.34461 24.1154 1.658C24.3648 1.87927 24.5432 2.16963 24.6275 2.49236L24.4812 2.56562L24.2252 2.6901V2.68986C24.0823 2.75847 23.9429 2.83418 23.8079 2.91676L23.5663 3.07039C23.42 3.17282 23.2881 3.27524 23.1492 3.38502L22.9444 3.546V3.54625C22.7456 3.72046 22.5577 3.9062 22.3808 4.10248C22.2419 4.25611 22.1759 4.27081 22.1833 4.28552V4.28527C22.072 4.19142 21.9735 4.08312 21.8905 3.9633C21.6038 3.53718 21.2032 3.19977 20.7341 2.99C20.5935 2.94198 20.4489 2.90522 20.3024 2.88023H19.4974C19.6719 2.7778 19.8258 2.64377 19.951 2.48499L19.9804 2.48497ZM3.74814 14.1136C3.87751 13.5476 4.12721 13.0161 4.4798 12.5549C4.86304 12.0786 5.35161 11.6978 5.90688 11.4425C6.19822 11.3166 6.50256 11.2232 6.8145 11.1644C6.95956 11.145 7.08967 11.0654 7.17298 10.9448C7.26193 10.8282 7.29673 10.679 7.2683 10.5351C7.05095 9.24776 7.47731 7.93579 8.4099 7.02234C8.9622 6.48571 9.66346 6.12845 10.4224 5.9976H10.576C11.1187 6.089 11.6727 6.089 12.2153 5.9976C12.4378 5.96354 12.6502 5.88096 12.8374 5.75624C13.1604 5.52444 13.389 5.18409 13.4814 4.79743C13.8489 3.59336 14.6776 2.58305 15.7867 1.98713C16.2441 1.72886 16.779 1.64334 17.2944 1.74577C17.5448 1.87343 17.757 2.06529 17.9091 2.30199C18.1179 2.65558 18.4659 2.90527 18.8677 2.98981L18.5092 3.12164L18.3847 3.16551L18.136 3.26793C15.7648 4.3436 14.9964 7.08798 14.9817 7.1539C14.9339 7.31219 14.8364 7.45064 14.7036 7.54915C14.6345 7.58933 14.5566 7.61187 14.4767 7.61506C14.017 7.6991 13.5461 7.6991 13.0864 7.61506C11.6228 7.359 9.91759 8.85176 9.72721 9.02746C8.53217 10.1617 7.91592 11.7765 8.05116 13.4185C7.80147 13.4893 7.55693 13.5772 7.3195 13.6819C6.54593 14.0467 5.86545 14.5823 5.32887 15.2481C4.83194 15.8749 4.47494 16.6012 4.2823 17.3777C3.96645 16.9457 3.76062 16.4434 3.68221 15.9141C3.57783 15.316 3.60013 14.7027 3.74814 14.1136ZM1.38427 22.2589L4.04804 19.7706V19.9316C4.09117 20.1671 4.14973 20.3994 4.22373 20.627C4.24407 20.6794 4.26122 20.7333 4.27494 20.788C4.35507 21.0066 4.45039 21.2192 4.56041 21.4246L2.64305 23.5324C2.48059 23.7036 2.25688 23.8036 2.0209 23.8105C1.7722 23.8107 1.53304 23.7134 1.35491 23.5397C1.18192 23.3714 1.0844 23.1406 1.0844 22.8992C1.0844 22.6581 1.18192 22.427 1.35491 22.2589H1.38427Z" fill="black"/>
</g>
<defs>
<clipPath id="clip0_3_2">
<rect width="32" height="32" fill="white"/>
</clipPath>
</defs>
</svg>
