<svg width="32" height="32" viewBox="0 0 32 32" fill="none" xmlns="http://www.w3.org/2000/svg">
<g clip-path="url(#clip0_3_109)">
<path fill-rule="evenodd" clip-rule="evenodd" d="M12.2982 2.41658C11.86 1.47153 11.1711 0.740484 10.2164 0.455986C9.61323 0.276182 8.98272 0.362634 8.38566 0.595145C7.78936 0.827409 7.19382 1.21706 6.62703 1.69713C5.56351 2.59836 4.54059 3.87122 3.73741 5.22C3.6416 5.22912 3.54578 5.24291 3.44973 5.26212C2.29036 5.49143 1.42829 6.39539 0.868249 7.57714C0.305199 8.76532 0.00592704 10.3101 0 12.0059V12.0069C0 12.0892 0.000492559 12.2 0.00172412 12.285C0.0275862 14.3413 0.342857 16.3756 0.933216 18.2822C1.54996 20.2741 2.45634 22.092 3.60612 23.6299C4.75591 25.1678 6.12902 26.3991 7.65341 27.2436C8.57683 27.7554 9.54357 28.1182 10.5327 28.3251V30.3445C10.5327 31.2588 11.2736 31.9997 12.1879 31.9997H20.5141C21.4281 31.9997 22.1692 31.2588 22.1692 30.3445V28.151C22.9138 27.9369 23.6424 27.6335 24.346 27.2436C25.8702 26.399 27.2435 25.1677 28.3933 23.6298C29.5428 22.0919 30.4492 20.2739 31.0662 18.2821C31.6593 16.3659 31.9741 13.9144 32 11.8689V11.8601C31.9941 10.1642 31.6946 8.65247 31.1283 7.49751C30.5623 6.34306 29.6971 5.48894 28.5498 5.26182C28.4535 5.24261 28.3572 5.22857 28.2611 5.21946C27.4579 3.87093 26.435 2.59806 25.3715 1.69684C24.8047 1.21679 24.2091 0.827138 23.6128 0.594848C23.0158 0.362338 22.3853 0.275885 21.7821 0.455689C20.8271 0.740168 20.138 1.47167 19.6999 2.41697C18.5991 0.889372 17.3573 0 15.9989 0C14.6408 0 13.3992 0.889183 12.2984 2.41622L12.2982 2.41658ZM12.7332 3.75521C12.8499 4.30545 12.9127 4.90102 12.9226 5.52714C13.8886 5.32344 14.8329 5.403 15.6252 5.89043C15.759 5.9727 15.8836 6.06359 15.9996 6.16211C16.1159 6.06285 16.2403 5.97221 16.373 5.89043C17.1654 5.403 18.1097 5.32344 19.0757 5.52714C19.0855 4.90153 19.1484 4.30623 19.2649 3.75621C18.1003 1.85798 16.9713 1.1038 15.9986 1.1038C15.0262 1.1038 13.8974 1.85773 12.7331 3.75527L12.7332 3.75521ZM16.6979 7.01697C17.1043 7.73793 17.273 8.63669 17.2506 9.59404C17.5058 9.68443 17.758 9.80068 18.0051 9.93936C18.7408 8.63421 19.8008 7.69824 21.1245 7.60536C22.0607 7.5396 22.9302 7.91349 23.6777 8.55312C24.2402 7.56198 24.9013 6.73642 25.6225 6.15267C26.0681 5.79208 26.5484 5.51551 27.0488 5.35712C26.3434 4.2569 25.5023 3.25441 24.6577 2.53894C24.1506 2.10889 23.6595 1.79755 23.2122 1.6234C22.7654 1.44951 22.3954 1.42439 22.0971 1.5133C21.4976 1.69187 20.9929 2.1857 20.6447 3.00811C20.2954 3.83273 20.127 4.94329 20.1912 6.23148C20.2006 6.41522 20.1176 6.59133 19.9701 6.70118C19.8228 6.81128 19.6302 6.84058 19.457 6.7795C18.4196 6.41374 17.5622 6.45439 16.9514 6.83024C16.8612 6.88566 16.7767 6.94801 16.6979 7.01697ZM16.1494 9.3753C16.1405 8.11965 15.7282 7.2492 15.047 6.83027C14.4361 6.45441 13.5788 6.41377 12.5414 6.77953C12.368 6.84061 12.1756 6.8113 12.0281 6.7012C11.8808 6.59135 11.7978 6.41524 11.8069 6.23151C11.8712 4.94332 11.7029 3.83276 11.3537 3.00814C11.0054 2.18573 10.5008 1.69189 9.90124 1.51333C9.60272 1.42441 9.23274 1.44929 8.7862 1.62342C8.33891 1.79756 7.84777 2.10889 7.34038 2.53896C6.49603 3.2545 5.65495 4.25692 4.94976 5.35689C5.45025 5.51527 5.931 5.79211 6.37685 6.15269C7.09781 6.73643 7.75887 7.56207 8.32168 8.55315C9.06918 7.91347 9.93869 7.53962 10.8749 7.60539C12.2357 7.70095 13.3179 8.68764 14.0556 10.0504C14.3952 9.7881 14.7772 9.59279 15.2029 9.47949C15.5169 9.39575 15.8336 9.36298 16.1494 9.3753ZM13.2489 10.8989C12.5881 9.50141 11.6992 8.76942 10.7975 8.70611C10.0797 8.65562 9.31496 9.01991 8.59161 9.8332C8.46944 9.97064 8.28669 10.0379 8.10442 10.013C7.92215 9.98813 7.76452 9.87384 7.68373 9.70857C7.10098 8.51648 6.40097 7.59186 5.68253 7.01032C4.96404 6.42904 4.27417 6.2236 3.66406 6.34435C2.9786 6.48006 2.34384 7.03964 1.86533 8.04951C1.38996 9.05294 1.10919 10.4276 1.10351 12.0093C1.10351 12.0877 1.10401 12.1918 1.10499 12.2689V12.2704C1.12987 14.2246 1.42937 16.1536 1.98749 17.9556C2.19217 18.6166 2.42985 19.2553 2.69855 19.8679L6.81355 20.8851C5.56062 18.2753 4.75813 15.6273 4.22489 13.1661C4.16036 12.8686 4.34952 12.5747 4.6473 12.5102C4.94508 12.4457 5.23867 12.6348 5.30318 12.9326C5.55195 14.0801 5.85958 15.2642 6.24482 16.4622L8.51967 13.088C8.69011 12.8353 9.03297 12.7686 9.28565 12.939C9.53811 13.1092 9.60486 13.4521 9.43466 13.7048L6.69454 17.7686C7.45263 19.8274 8.45683 21.9023 9.79917 23.8793L12.4827 20.1208C11.8519 17.6622 11.7802 15.2822 12.2019 13.3917C12.4132 12.4439 12.76 11.5806 13.2489 10.8989L13.2489 10.8989ZM13.6314 20.1476C13.625 20.1031 13.6132 20.0595 13.5962 20.0176C12.9581 17.6309 12.8928 15.363 13.2787 13.6321C13.6733 11.8637 14.4925 10.8105 15.4869 10.5457C16.196 10.3568 17.0228 10.5539 17.9006 11.1787C18.0344 11.274 18.2036 11.3046 18.3625 11.2625C18.5211 11.2204 18.6526 11.1095 18.7216 10.9605C19.3853 9.52282 20.2868 8.7704 21.2018 8.70608C21.9196 8.65559 22.6844 9.01988 23.4077 9.83317C23.5299 9.9706 23.7126 10.0378 23.8949 10.013C24.0772 9.98809 24.2348 9.87381 24.3156 9.70854C24.8983 8.51645 25.5981 7.59183 26.3168 7.01029C27.0353 6.42901 27.7252 6.22357 28.3353 6.34431C29.0328 6.48249 29.6643 7.01893 30.1372 7.98346C30.6094 8.94629 30.8904 10.2797 30.8963 11.8598C30.8712 13.8241 30.5665 16.1642 30.0119 17.9556C29.8072 18.6166 29.5695 19.2553 29.3008 19.8679L25.1851 20.8854C26.438 18.2755 27.2408 15.6273 27.774 13.1663C27.8385 12.8688 27.6494 12.575 27.3516 12.5105C27.0538 12.4459 26.76 12.6351 26.6955 12.9329C26.447 14.0804 26.1391 15.2648 25.7538 16.4629L23.4787 13.0882C23.3083 12.8355 22.9654 12.7688 22.7128 12.9392C22.46 13.1094 22.3933 13.4523 22.5637 13.705L25.3039 17.769C24.5458 19.8278 23.5418 21.9025 22.1992 23.8795L18.2042 18.2835C18.0271 18.0355 17.6825 17.9779 17.4345 18.1549C17.1865 18.332 17.1291 18.6766 17.3062 18.9246L21.5192 24.8261C21.5199 24.8273 21.5209 24.8285 21.5216 24.8298C20.8554 25.7199 20.1148 26.5857 19.2909 27.4162C18.3584 27.3332 17.284 26.6719 16.2564 25.4389C15.1798 24.1466 14.2264 22.3067 13.6315 20.1476L13.6314 20.1476ZM12.8812 21.4619L10.4795 24.8262C10.4785 24.8274 10.4776 24.8286 10.4768 24.8299C11.1433 25.72 11.8837 26.5858 12.7076 27.4163C13.4958 27.3466 14.3859 26.8636 15.2647 25.9688C14.3135 24.7772 13.4813 23.2295 12.8812 21.4619ZM15.9997 26.7944C14.9401 27.8544 13.7292 28.5311 12.5039 28.5286C12.4923 28.5289 12.481 28.5289 12.4697 28.5286C12.1909 28.5279 11.913 28.5151 11.6362 28.4902V30.3448C11.6362 30.6495 11.8832 30.8966 12.1879 30.8966H20.5141C20.8188 30.8966 21.0659 30.6495 21.0659 30.3448V28.4005C20.5523 28.4855 20.0336 28.5283 19.5127 28.5286C18.2821 28.5375 17.0654 27.8606 15.9999 26.7944L15.9997 26.7944ZM20.9122 27.3074C21.9028 27.1402 22.8777 26.7959 23.8112 26.2789C25.1834 25.5183 26.442 24.3971 27.5094 22.9696C27.9294 22.4075 28.3161 21.8028 28.6663 21.1615L24.5198 22.1866C23.5597 23.9526 22.3765 25.6834 20.9122 27.3075V27.3074ZM11.0859 27.3072C9.62161 25.683 8.43841 23.9523 7.47855 22.1863L3.33302 21.1614C3.68302 21.8028 4.06999 22.4075 4.48993 22.9695C5.55718 24.3971 6.81579 25.5183 8.18815 26.2788C9.12116 26.7956 10.0958 27.1399 11.0859 27.3072Z" fill="black"/>
</g>
<defs>
<clipPath id="clip0_3_109">
<rect width="32" height="32" fill="white"/>
</clipPath>
</defs>
</svg>
