<svg width="32" height="32" viewBox="0 0 32 32" fill="none" xmlns="http://www.w3.org/2000/svg">
<g clip-path="url(#clip0_4_380)">
<path d="M8.28644 27.1525C6.51479 28.1698 4.51753 28.5346 3.33494 28.6657C3.46597 27.4831 3.83078 25.486 4.84689 23.7132C5.11302 23.2507 4.95325 22.6604 4.4907 22.3943C4.02384 22.127 3.43695 22.2891 3.17179 22.7517C1.35176 25.9261 1.33023 29.5511 1.33023 29.7044C1.33023 30.2378 1.7626 30.6702 2.29605 30.6702C2.4496 30.6702 6.07452 30.6486 9.24872 28.8286C9.71127 28.5625 9.87102 27.9732 9.60492 27.5097C9.34118 27.0472 8.75193 26.8862 8.28625 27.1523L8.28644 27.1525Z" fill="black"/>
<path d="M31.9996 2.34489C32.0113 1.71057 31.772 1.11606 31.3258 0.670738C30.8805 0.225437 30.2366 0.00527368 29.655 0C26.9808 0.0505427 19.7669 0.817788 12.9417 6.94408C11.7249 6.47075 9.89074 5.76793 8.49904 5.94711C6.45144 6.21013 3.42631 8.99597 0.463426 11.9684C0.0705857 12.3622 -0.0860732 12.9203 0.0459097 13.4612C0.176936 14.0042 0.573854 14.4301 1.1061 14.6009L5.81709 16.1141C5.46185 16.7623 5.11214 17.4253 4.77413 18.125C4.34919 19.0051 4.52956 20.0619 5.22278 20.7532L11.2462 26.7767C11.6884 27.2198 12.2808 27.4538 12.8784 27.4538C13.2164 27.4538 13.5578 27.3798 13.8754 27.2263C14.5751 26.8883 15.2384 26.5383 15.8844 26.1843L17.3985 30.8944C17.5691 31.4266 17.9952 31.8238 18.5392 31.9558C18.6648 31.9857 18.7915 32.0008 18.918 32.0008C19.3312 32.0008 19.7292 31.8389 20.0318 31.5373C23.0045 28.5745 25.7903 25.5503 26.0521 23.5042C26.2335 22.0995 25.5285 20.2761 25.0552 19.0593C31.1807 12.2342 31.949 5.02029 31.9993 2.34482L31.9996 2.34489ZM2.23029 12.9346C3.8024 11.3689 7.21723 8.06045 8.74512 7.86397C9.42659 7.77702 10.4964 8.10016 11.4002 8.42737C9.8044 10.0768 8.25479 12.0535 6.81036 14.4048L2.23029 12.9346ZM13.0358 25.4871C12.8995 25.5537 12.7247 25.5235 12.613 25.4119L6.5884 19.3873C6.47797 19.2769 6.44684 19.103 6.51439 18.9645C14.0165 3.42494 26.1515 1.99921 29.6928 1.93298H29.7014C29.8291 1.93298 29.9129 1.98975 29.9623 2.03934C30.003 2.08006 30.0727 2.17036 30.0706 2.30978C30.0021 5.85087 28.5758 17.9861 13.036 25.487L13.0358 25.4871ZM24.1375 23.2573C23.9411 24.7843 20.6326 28.2001 19.0669 29.7715L17.5945 25.1925C19.9479 23.748 21.9246 22.1973 23.5741 20.6017C23.9025 21.5038 24.2256 22.5717 24.1375 23.2575L24.1375 23.2573Z" fill="black"/>
<path d="M24.7225 13.0111C26.3023 11.4304 26.3023 8.85917 24.7225 7.27847C23.1902 5.74831 20.5201 5.74831 18.9899 7.27847C18.2248 8.04359 17.803 9.06208 17.803 10.1448C17.803 11.2275 18.2258 12.246 18.9899 13.0111C19.755 13.7762 20.7735 14.198 21.8562 14.198C22.9392 14.198 23.9565 13.7761 24.7225 13.0111ZM23.3555 11.645C22.5538 12.4477 21.1556 12.4477 20.356 11.645C19.9545 11.2448 19.7337 10.7113 19.7337 10.1448C19.7337 9.57827 19.9548 9.04577 20.356 8.64454C20.7562 8.24427 21.2885 8.02316 21.8552 8.02316C22.4208 8.02316 22.9542 8.24426 23.3545 8.64454C24.1828 9.47189 24.1829 10.8177 23.3555 11.645Z" fill="black"/>
</g>
<defs>
<clipPath id="clip0_4_380">
<rect width="32" height="32" fill="white"/>
</clipPath>
</defs>
</svg>
