<svg width="32" height="32" viewBox="0 0 32 32" fill="none" xmlns="http://www.w3.org/2000/svg">
<g clip-path="url(#clip0_3_212)">
<path d="M28.8126 10.5207C27.9762 7.79187 25.9956 6.11922 23.0905 5.76709C22.4304 5.67898 21.77 5.67898 21.1981 5.72319C21.7703 4.71092 22.0344 3.74259 21.9902 2.81811C21.8581 1.14546 20.7139 0.221302 20.6696 0.177051C20.5376 0.0889348 20.3614 0.00112464 20.2294 0.00112464C20.1855 0.00112464 17.7203 -0.130897 16.356 2.46589C15.9599 1.76158 15.4757 1.23347 14.8595 0.837412C13.4509 -0.0870628 11.9987 0.265121 11.9544 0.265121C11.7785 0.309025 11.6462 0.397143 11.5584 0.529164C11.5145 0.573069 9.62164 2.77386 11.5145 5.76704C9.09357 5.5469 4.95615 5.94297 3.54774 10.5646C3.2837 11.2689 0.554875 19.1476 10.3259 29.315L10.6781 29.6672C12.1306 31.1636 14.1112 32 16.18 32H16.2681C18.3807 31.9561 20.3613 31.1198 21.8139 29.5352L22.034 29.3151C31.8054 19.1036 29.0768 11.2249 28.8125 10.5206L28.8126 10.5207ZM12.615 1.84975C12.9233 1.84975 13.4514 1.89365 13.9794 2.20191C14.7715 2.73 15.3438 3.7426 15.6079 5.28289C15.6518 5.45882 15.7399 5.63505 15.8719 5.72317C16.0921 5.9433 16.4442 6.03142 16.7083 5.89909C17.0166 5.81098 17.1925 5.54693 17.2364 5.23899C17.5886 2.24612 19.1731 1.71771 19.8332 1.6296C20.0533 1.84973 20.3174 2.33391 20.3613 2.95013C20.4052 3.8746 19.921 4.93073 18.9088 6.07536C17.1041 6.47142 15.1674 6.2955 14.199 6.16347C14.1109 6.16347 14.0231 6.11957 13.9789 6.11957L13.935 6.07567C11.7349 3.96239 12.2629 2.42179 12.615 1.84975ZM12.7032 7.48368C13.0992 7.5718 13.5395 7.65961 13.9794 7.70382C15.1237 7.83584 17.2806 8.01208 19.3932 7.52789H19.4371C19.6573 7.48399 24.1026 6.29547 26.3915 9.11244L26.3476 9.20025C25.8634 9.99236 25.1591 10.4765 24.2789 10.6089C22.9145 10.7848 21.4619 10.1686 20.8896 9.64056C20.5817 9.3323 20.0975 9.3323 19.7453 9.59635C18.3809 10.7848 17.0165 11.3129 15.7399 11.0928C14.5075 10.9169 13.5831 10.0805 13.2751 9.59635C13.1431 9.37621 12.923 9.24419 12.7028 9.20028C12.4827 9.15638 12.2186 9.24418 12.0427 9.37621C10.5463 10.6525 9.22575 10.9608 8.03727 10.3007C7.42107 9.94852 6.93689 9.37621 6.67288 8.6722L6.54086 8.49597C7.68517 7.52764 9.18192 7.26354 10.4582 7.26354C11.4265 7.21964 12.2629 7.39557 12.7032 7.48368ZM27.6683 15.9786C27.2722 18.7956 25.7758 23.1971 20.934 28.2148L20.7138 28.4349C19.5253 29.6674 17.9408 30.3717 16.2684 30.4155H16.1803C14.5076 30.4155 12.9231 29.7554 11.7348 28.5669L11.3827 28.2147C6.54085 23.1532 5.04441 18.7515 4.64836 15.9785C4.20808 12.9857 4.95661 11.0929 4.95661 11.0929C4.95661 11.049 4.95661 11.049 5.00052 11.0047C5.13254 10.6087 5.26456 10.2565 5.44079 9.94831C5.88107 10.7404 6.49723 11.4008 7.24549 11.8408C8.3898 12.5009 10.1945 12.8531 12.4391 11.2246C13.1434 11.9289 14.2438 12.589 15.5201 12.7653C15.7402 12.8092 16.0043 12.8092 16.3122 12.8092C17.4126 12.8092 18.8212 12.5009 20.3616 11.3128C21.3739 11.9729 23.0027 12.5012 24.543 12.2811C25.6873 12.1052 26.6117 11.5768 27.316 10.7847C27.3599 10.8728 27.4041 10.9606 27.4041 11.0929C27.4041 11.0929 27.4041 11.1368 27.448 11.181C27.4041 11.0929 28.1084 12.9418 27.6681 15.9786H27.6683Z" fill="black"/>
<path d="M8.74171 14.35C8.74171 13.9539 8.43345 13.6456 8.03739 13.6456C7.64133 13.6456 7.33308 13.9539 7.33308 14.35V15.6266C7.33308 15.9348 7.50901 16.1546 7.72915 16.2867C7.81726 16.3306 7.94928 16.3748 8.0374 16.3748C8.43347 16.3748 8.74171 16.0665 8.74171 15.6705L8.74171 14.35Z" fill="black"/>
<path d="M13.4513 13.6458C13.0553 13.6458 12.747 13.9541 12.747 14.3501V15.6264C12.747 15.9346 12.9229 16.1545 13.1431 16.2865C13.2312 16.3304 13.3632 16.3746 13.4513 16.3746C13.8474 16.3746 14.1556 16.0664 14.1556 15.6703V14.394C14.1553 13.954 13.8474 13.6458 13.4513 13.6458Z" fill="black"/>
<path d="M18.8652 13.6458C18.4691 13.6458 18.1609 13.9541 18.1609 14.3501V15.6264C18.1609 15.9346 18.3368 16.1545 18.5569 16.2865C18.645 16.3304 18.7771 16.3746 18.8652 16.3746C19.2612 16.3746 19.5695 16.0664 19.5695 15.6703V14.394C19.6134 13.954 19.3054 13.6458 18.8652 13.6458Z" fill="black"/>
<path d="M24.323 13.6018C23.927 13.6018 23.6187 13.91 23.6187 14.3061V15.5824C23.6187 15.8906 23.7947 16.1105 24.0148 16.2425C24.1029 16.2864 24.2349 16.3306 24.3231 16.3306C24.7191 16.3306 25.0274 16.0223 25.0274 15.6263V14.35C25.0271 13.9539 24.7191 13.6018 24.323 13.6018Z" fill="black"/>
<path d="M10.3703 17.7832C9.9742 17.7832 9.66595 18.0915 9.66595 18.4875V19.7638C9.66595 20.0721 9.84188 20.2919 10.062 20.4239C10.1501 20.4678 10.2822 20.512 10.3703 20.512C10.7663 20.512 11.0746 20.2038 11.0746 19.8077V18.5314C11.1185 18.1354 10.7663 17.7832 10.3703 17.7832Z" fill="black"/>
<path d="M15.52 20.4241C15.6081 20.468 15.7402 20.5122 15.8283 20.5122C16.2244 20.5122 16.5326 20.204 16.5326 19.8079V18.5316C16.5326 18.1356 16.2243 17.8273 15.8283 17.8273C15.4322 17.8273 15.124 18.1356 15.124 18.5316V19.8079C15.0798 20.072 15.2557 20.336 15.52 20.4241Z" fill="black"/>
<path d="M15.8281 25.97C15.4321 25.97 15.1238 26.2783 15.1238 26.6743V27.9506C15.1238 28.2589 15.2998 28.4787 15.5199 28.6107C15.608 28.6546 15.74 28.6988 15.8281 28.6988C16.2242 28.6988 16.5325 28.3906 16.5325 27.9945V26.7182C16.5325 26.2783 16.2242 25.97 15.8281 25.97Z" fill="black"/>
<path d="M21.242 17.7832H21.11C20.8017 17.8271 20.5377 18.1354 20.5377 18.4875V19.7638C20.5377 19.9397 20.5816 20.0721 20.6697 20.1599C20.7578 20.248 20.8456 20.3358 20.9337 20.38C21.0219 20.4239 21.1539 20.4681 21.242 20.4681C21.6381 20.4681 21.9463 20.1599 21.9463 19.7638V18.4875C21.9905 18.0915 21.6384 17.7832 21.242 17.7832Z" fill="black"/>
<path d="M13.0992 21.7886C12.7031 21.7886 12.3949 22.0968 12.3949 22.4929V23.7692C12.3949 24.0774 12.5708 24.2973 12.791 24.4293C12.8791 24.4732 13.0111 24.5174 13.0992 24.5174C13.4953 24.5174 13.8035 24.2091 13.8035 23.8131V22.5368C13.8035 22.0965 13.4953 21.7886 13.0992 21.7886Z" fill="black"/>
<path d="M18.5131 21.7886C18.117 21.7886 17.8087 22.0968 17.8087 22.4929V23.7692C17.8087 24.0774 17.9847 24.2973 18.2048 24.4293C18.2929 24.4732 18.4249 24.5174 18.5131 24.5174C18.9091 24.5174 19.2174 24.2091 19.2174 23.8131V22.5368C19.2613 22.0965 18.9533 21.7886 18.5131 21.7886Z" fill="black"/>
</g>
<defs>
<clipPath id="clip0_3_212">
<rect width="32" height="32" fill="white"/>
</clipPath>
</defs>
</svg>
