<svg width="32" height="32" viewBox="0 0 32 32" fill="none" xmlns="http://www.w3.org/2000/svg">
<g clip-path="url(#clip0_3_19)">
<path d="M16 0C11.7565 0 7.68699 1.68561 4.68619 4.68619C1.68561 7.68706 0 11.7568 0 16C0 20.2432 1.68561 24.313 4.68619 27.3138C7.68706 30.3144 11.7568 32 16 32C20.2432 32 24.313 30.3144 27.3138 27.3138C30.3144 24.3129 32 20.2432 32 16C32 11.7568 30.3144 7.68699 27.3138 4.68619C24.3129 1.68561 20.2432 0 16 0ZM16 30.7699C12.0828 30.7699 8.32583 29.2137 5.55654 26.4438C2.78658 23.6741 1.23036 19.9175 1.23036 16.0003C1.23036 12.0831 2.78658 8.32612 5.55654 5.55683C8.3262 2.78688 12.0828 1.23065 16 1.23065C19.9172 1.23065 23.6742 2.78688 26.4435 5.55683C29.2134 8.32649 30.7696 12.0831 30.7696 16.0003C30.7696 19.9175 29.2134 23.6745 26.4435 26.4438C23.6738 29.2137 19.9172 30.7699 16 30.7699Z" fill="black"/>
<path d="M9.97274 9.2066C10.41 10.0134 10.9993 10.7282 11.7084 11.3112C12.1033 11.6589 12.6027 11.8652 13.1278 11.8979C13.3545 11.9007 13.578 11.8441 13.776 11.7339C14.1043 11.5493 14.6377 11.0405 14.4857 9.73581C14.3524 8.82773 14.0445 7.95438 13.5791 7.16337C12.5821 5.39937 10.9534 3.96733 9.76381 4.63613C9.43556 4.82072 8.9021 5.32954 9.05408 6.6342C9.19145 7.54279 9.50311 8.41648 9.97274 9.2066ZM10.3831 5.70689C10.402 5.70203 10.4218 5.70203 10.4406 5.70689C10.728 5.70689 11.6715 6.30186 12.5206 7.77881C12.9032 8.42758 13.1594 9.14331 13.2756 9.88735C13.3411 10.4534 13.21 10.6546 13.1811 10.6709C13.1525 10.6872 12.9144 10.6955 12.4631 10.3466C11.8865 9.86387 11.4062 9.27694 11.0477 8.61554C10.6651 7.96677 10.4089 7.25104 10.293 6.5067C10.2232 5.92432 10.3545 5.74381 10.3831 5.70689Z" fill="black"/>
<path d="M7.08914 14.7695C7.88528 15.0803 8.72926 15.2497 9.58349 15.27H9.77208C11.0851 15.2168 11.5035 14.6135 11.6348 14.2566C11.7662 13.8998 11.848 13.1735 10.8965 12.2709C10.2097 11.661 9.41148 11.1905 8.54553 10.8843C7.69159 10.5475 6.78065 10.3789 5.86261 10.3878C4.54961 10.441 4.13122 11.0443 3.99986 11.4012C3.51993 12.6732 5.18976 14.0597 7.08914 14.7695ZM5.15254 11.8279C5.15254 11.7992 5.34113 11.6393 5.91146 11.6147H6.04711C6.74939 11.6333 7.44312 11.772 8.09844 12.0247C8.80931 12.2752 9.46639 12.6581 10.0348 13.1531C10.4451 13.5635 10.4778 13.785 10.4697 13.8136C10.4614 13.8422 10.2812 14.0022 9.71082 14.0268C8.95842 14.0317 8.21182 13.8923 7.5118 13.6167C5.80099 12.9725 5.0787 12.0248 5.15254 11.8279Z" fill="black"/>
<path d="M11.6021 17.5717C11.487 17.2311 11.0769 16.6032 9.75992 16.5254C8.84246 16.4997 7.92837 16.6513 7.06872 16.9727C6.19727 17.2635 5.39059 17.7205 4.69313 18.3183C3.72498 19.2046 3.79055 19.9346 3.91759 20.2918C4.18029 21.0345 5.01307 21.3421 6.03873 21.3421C6.86351 21.3261 7.68024 21.1733 8.4552 20.8908C9.32665 20.5998 10.1333 20.1427 10.8308 19.5449C11.7949 18.6589 11.7292 17.9286 11.6021 17.5717ZM9.99802 18.6343C9.42222 19.1193 8.75917 19.4911 8.04487 19.7295C6.31347 20.3407 5.14846 20.0783 5.07864 19.8811C5.07864 19.8525 5.10326 19.6144 5.52594 19.2289C6.10317 18.7433 6.76707 18.3715 7.48284 18.1337C8.12474 17.8968 8.80126 17.7666 9.48494 17.748H9.69013C10.2605 17.7809 10.4367 17.9449 10.4451 17.9735C10.4534 18.0024 10.4207 18.2485 9.99802 18.6343Z" fill="black"/>
<path d="M13.7106 20.1315C12.5372 19.4381 10.8796 20.8412 9.85002 22.5932C9.36953 23.3757 9.04474 24.2436 8.89389 25.1491C8.72161 26.4498 9.24274 26.9667 9.5667 27.1595C9.7696 27.2774 10.0008 27.3384 10.2355 27.3358C10.7558 27.3072 11.2526 27.11 11.6509 26.7737C12.3712 26.2045 12.9745 25.5008 13.4272 24.7021C14.4612 22.9501 14.8879 20.8249 13.7106 20.1315ZM12.369 24.0742C11.9987 24.7309 11.5073 25.3116 10.9206 25.785C10.461 26.1255 10.2232 26.1132 10.1946 26.0969C10.1659 26.0806 10.0429 25.8754 10.1167 25.309C10.2469 24.5661 10.5168 23.8549 10.9123 23.2128C11.8435 21.6291 12.9021 21.0876 13.0867 21.1901C13.2716 21.2926 13.3042 22.4908 12.3689 24.0702L12.369 24.0742Z" fill="black"/>
<path d="M16.9722 20.7343C15.6266 20.9599 15.2614 23.0976 15.5937 25.0954C15.9096 26.9867 16.8572 28.7876 18.0963 28.7876C18.1687 28.7939 18.2414 28.7939 18.3138 28.7876C18.6873 28.7261 19.3601 28.4308 19.6637 27.1467C19.8501 26.2464 19.8595 25.3183 19.6921 24.4143C19.3598 22.4164 18.3138 20.5128 16.9722 20.7343ZM18.4615 26.8594C18.3301 27.4174 18.1372 27.5608 18.1046 27.5651C17.9037 27.602 17.1036 26.7118 16.7999 24.8985C16.4962 23.085 16.9516 21.9898 17.165 21.9529C17.3906 21.9529 18.1578 22.8432 18.4575 24.6195C18.6005 25.3593 18.6017 26.1194 18.4615 26.8594Z" fill="black"/>
<path d="M24.3079 20.1724C22.7694 18.8717 20.747 18.0513 19.8607 19.1056C19.6146 19.3929 19.2903 20.0491 19.8607 21.2267C20.2962 22.0349 20.8844 22.7509 21.5921 23.3356C22.6383 24.2299 23.9101 24.8823 24.8743 24.8823C25.3095 24.9058 25.7317 24.7307 26.023 24.4061C26.9419 23.3848 25.8464 21.4895 24.3079 20.1724ZM25.1283 23.5983C24.993 23.7583 23.8113 23.5983 22.4165 22.392C21.8344 21.9135 21.3488 21.3286 20.9847 20.6686C20.7303 20.1558 20.7838 19.926 20.8041 19.9014C20.8645 19.8573 20.9395 19.8384 21.0136 19.8481C21.424 19.8481 22.3882 20.1478 23.5163 21.1076C24.9274 22.3221 25.2639 23.438 25.1203 23.6022L25.1283 23.5983Z" fill="black"/>
<path d="M27.7988 14.4617C26.9459 14.1191 26.0348 13.9449 25.1159 13.9489C23.0932 13.9489 21.0132 14.6257 21.0132 16.0002C21.0132 17.3747 23.0645 18.0967 25.0707 18.1131H25.1485C27.1466 18.1131 29.1527 17.4197 29.165 16.0617C29.1773 15.6926 29.005 14.9828 27.7988 14.4617ZM25.091 16.8822C23.2528 16.8822 22.2518 16.2217 22.2518 16.0125C22.2518 15.8033 23.2488 15.1921 25.1236 15.1921C25.8773 15.188 26.6251 15.3274 27.3271 15.6022C27.8523 15.8277 27.959 16.0411 27.959 16.0741C27.9424 16.2709 26.9205 16.8988 25.091 16.8822Z" fill="black"/>
<path d="M19.9715 10.7532C19.3645 11.8979 19.6925 12.579 19.9183 12.8743C20.2179 13.2155 20.6589 13.3989 21.1122 13.3709C21.417 13.3666 21.7195 13.3182 22.0106 13.2272C22.8791 12.9407 23.6845 12.4894 24.3818 11.8979C25.1013 11.3269 25.7031 10.6218 26.1544 9.82191C26.7617 8.66086 26.4497 7.99609 26.2076 7.70502C25.9655 7.41368 25.3872 6.97898 24.1194 7.35216C22.3754 7.96344 20.9053 9.17484 19.9715 10.7697V10.7532ZM22.5234 9.62906C23.0954 9.13884 23.7553 8.76164 24.4683 8.51724C24.6485 8.45886 24.8366 8.42709 25.026 8.4228C25.1099 8.41393 25.1943 8.43138 25.2681 8.47202C25.2887 8.49663 25.338 8.73044 25.0712 9.23929C24.6949 9.89321 24.1978 10.4696 23.6066 10.9378C23.0345 11.4283 22.3746 11.8055 21.662 12.0496C21.1122 12.2136 20.8947 12.1194 20.8741 12.0948C20.8536 12.0702 20.8043 11.8364 21.071 11.3319C21.4433 10.6774 21.9362 10.0998 22.5234 9.62906Z" fill="black"/>
<path d="M17.0586 11.1877C17.133 11.2014 17.2086 11.2083 17.2841 11.2083C17.6945 11.2083 18.2892 11.0197 18.8842 10.1128C19.3664 9.33068 19.6923 8.46275 19.8443 7.55694C20.2135 5.56715 19.8895 3.41736 18.5479 3.17128C18.1744 3.10145 17.4444 3.15067 16.7221 4.24617C16.2402 5.02831 15.9142 5.89596 15.7622 6.80206C15.5791 7.7015 15.5722 8.62818 15.7416 9.53018C16.0206 10.8103 16.6892 11.1179 17.0586 11.1877ZM16.9725 7.02351C17.0956 6.28056 17.3588 5.56772 17.7478 4.92295C18.0514 4.46335 18.2729 4.3815 18.3181 4.3815C18.5233 4.41841 18.9663 5.53024 18.63 7.33541C18.5081 8.07807 18.2463 8.79062 17.8585 9.43569C17.5426 9.91561 17.3171 9.98543 17.2842 9.97713C17.2513 9.96883 17.0667 9.82546 16.9436 9.2634C16.8114 8.52163 16.8211 7.76155 16.9725 7.02351Z" fill="black"/>
<path d="M13.9948 3.84245L14.2581 3.80067C14.7103 3.72913 15.1481 4.12319 15.2062 4.48979L15.248 4.75308C15.3195 5.20524 15.011 5.62965 14.5589 5.70116L14.2956 5.74294C13.8434 5.81448 13.4056 5.42042 13.3475 5.05382L13.3057 4.79053C13.2342 4.33837 13.5427 3.91396 13.9948 3.84245Z" fill="black"/>
<path d="M6.66275 8.00809L6.8376 7.8069C7.13781 7.46149 7.72678 7.4818 8.00664 7.72534L8.20782 7.90019C8.55324 8.2004 8.58958 8.7241 8.28938 9.06923L8.11453 9.27042C7.81433 9.61583 7.22535 9.59551 6.94549 9.35198L6.74431 9.17712C6.39889 8.87692 6.36255 8.35322 6.66275 8.00809Z" fill="black"/>
<path d="M3.72572 15.916L3.7303 15.6493C3.73831 15.1917 4.20249 14.8288 4.57339 14.8354L4.84011 14.84C5.29771 14.848 5.66233 15.2255 5.65397 15.6831L5.6494 15.9498C5.64138 16.4074 5.1772 16.7702 4.8063 16.7637L4.53958 16.7591C4.08198 16.7511 3.71737 16.3736 3.72572 15.916Z" fill="black"/>
<path d="M6.51036 22.4854L6.71756 22.3177C7.07328 22.0298 7.64967 22.152 7.88315 22.4404L8.05085 22.6476C8.33875 23.0034 8.2838 23.5253 7.92808 23.8132L7.72089 23.9809C7.36517 24.2688 6.78878 24.1466 6.5553 23.8582L6.38759 23.651C6.0997 23.2952 6.15464 22.7733 6.51036 22.4854Z" fill="black"/>
<path d="M12.912 27.0987L12.9629 26.8368C13.0502 26.3875 13.5705 26.1108 13.9348 26.1815L14.1967 26.2324C14.646 26.3197 14.9393 26.755 14.852 27.2043L14.8011 27.4662C14.7138 27.9155 14.1935 28.1922 13.8292 28.1215L13.5673 28.0706C13.118 27.9833 12.8247 27.548 12.912 27.0987Z" fill="black"/>
<path d="M20.9782 25.1608L21.2114 25.0315C21.6118 24.8097 22.1581 25.03 22.3381 25.3549L22.4674 25.5881C22.6892 25.9884 22.5444 26.4927 22.1441 26.7148L21.9108 26.8441C21.5105 27.0659 20.9641 26.8456 20.7841 26.5207L20.6548 26.2875C20.433 25.8871 20.5778 25.3829 20.9782 25.1608Z" fill="black"/>
<path d="M25.7145 19.8501L25.8101 19.6011C25.9741 19.1739 26.5344 18.9916 26.881 19.1246L27.1299 19.2202C27.5572 19.3842 27.7707 19.8638 27.6064 20.2911L27.5108 20.5401C27.3469 20.9673 26.7865 21.1496 26.44 21.0166L26.191 20.921C25.7637 20.757 25.5502 20.2773 25.7145 19.8501Z" fill="black"/>
<path d="M26.357 11.4338L26.6091 11.3471C27.0418 11.1983 27.5417 11.5103 27.6625 11.8611L27.7492 12.1132C27.898 12.5459 27.668 13.0176 27.2353 13.1667L26.9831 13.2534C26.5504 13.4022 26.0505 13.0902 25.9297 12.7394L25.843 12.4873C25.6942 12.0546 25.9243 11.5829 26.357 11.4338Z" fill="black"/>
<path d="M21.0104 5.87035L21.1477 5.64169C21.3835 5.24934 21.9671 5.1672 22.285 5.35837L22.5136 5.49574C22.906 5.73155 23.0327 6.24066 22.7969 6.63298L22.6596 6.86164C22.4238 7.25399 21.8402 7.33613 21.5223 7.14496L21.2937 7.00759C20.9013 6.77178 20.7746 6.26266 21.0104 5.87035Z" fill="black"/>
<path d="M16 12.9767C15.1981 12.9767 14.4289 13.2955 13.8619 13.8625C13.295 14.4294 12.9762 15.1986 12.9762 16.0005C12.9762 16.8025 13.295 17.5716 13.8619 18.1386C14.4288 18.7055 15.1981 19.0243 16 19.0243C16.8019 19.0243 17.5711 18.7055 18.1381 18.1386C18.705 17.5717 19.0238 16.8025 19.0238 16.0005C19.0238 15.1986 18.705 14.4294 18.1381 13.8625C17.5711 13.2955 16.8019 12.9767 16 12.9767ZM16 17.7891C15.5244 17.7891 15.0679 17.6003 14.7317 17.2637C14.3955 16.9272 14.2068 16.4707 14.2071 15.9951C14.2074 15.5195 14.3968 15.0633 14.7337 14.7273C15.0705 14.3913 15.527 14.2028 16.0029 14.2036C16.4785 14.2042 16.9344 14.3942 17.2701 14.731C17.606 15.0682 17.7941 15.5249 17.7929 16.0005C17.7929 16.4762 17.604 16.932 17.2678 17.2683C16.9315 17.6046 16.4757 17.7935 16 17.7935V17.7891Z" fill="black"/>
</g>
<defs>
<clipPath id="clip0_3_19">
<rect width="32" height="32" fill="white"/>
</clipPath>
</defs>
</svg>
